<svg width="24" height="22" viewBox="0 0 24 22" fill="none" xmlns="http://www.w3.org/2000/svg">
<path d="M12 9V21M12 9C12 6.19974 12 4.79961 11.4671 3.73005C10.9984 2.78924 10.2505 2.02434 9.33062 1.54496C8.28482 1 6.91581 1 4.17778 1H2.95556C2.27105 1 1.92879 1 1.66735 1.13624C1.43737 1.25609 1.2504 1.44731 1.13321 1.68251C1 1.9499 1 2.29994 1 3V16.5C1 17.2001 1 17.5501 1.13321 17.8175C1.2504 18.0528 1.43737 18.2439 1.66735 18.3638C1.92879 18.5 2.27105 18.5 2.95556 18.5H6.55705C7.21729 18.5 7.5474 18.5 7.86662 18.5583C8.14994 18.6099 8.42634 18.6954 8.69011 18.8133C8.98727 18.9459 9.26194 19.1331 9.81124 19.5078L12 21M12 9C12 6.19974 12 4.79961 12.5329 3.73005C13.0016 2.78924 13.7495 2.02434 14.6693 1.54496C15.7152 1 17.0842 1 19.8222 1H21.0444C21.729 1 22.0712 1 22.3327 1.13624C22.5627 1.25609 22.7496 1.44731 22.8668 1.68251C23 1.9499 23 2.29994 23 3V16.5C23 17.2001 23 17.5501 22.8668 17.8175C22.7496 18.0528 22.5627 18.2439 22.3327 18.3638C22.0712 18.5 21.729 18.5 21.0444 18.5H17.4429C16.7827 18.5 16.4526 18.5 16.1334 18.5583C15.85 18.6099 15.5737 18.6954 15.3099 18.8133C15.0128 18.9459 14.738 19.1331 14.1888 19.5078L12 21" stroke="#1B788B" stroke-width="2" stroke-linecap="round" stroke-linejoin="round"/>
</svg>
