<svg width="22" height="22" viewBox="0 0 22 22" fill="none" xmlns="http://www.w3.org/2000/svg">
<path d="M12.2026 10.958C12.2026 10.2705 12.7599 9.71323 13.4474 9.71323H19.6711C20.3586 9.71323 20.9159 10.2705 20.9159 10.958V19.6712C20.9159 20.3587 20.3586 20.9159 19.6711 20.9159H13.4474C12.7599 20.9159 12.2026 20.3587 12.2026 19.6712V10.958Z" stroke="#1B788B" stroke-width="2" stroke-linecap="round"/>
<path d="M1 2.24475C1 1.5573 1.5573 1 2.24475 1H7.22373C7.91118 1 8.46848 1.5573 8.46848 2.24475V10.958C8.46848 11.6454 7.91118 12.2027 7.22373 12.2027H2.24475C1.5573 12.2027 1 11.6454 1 10.958V2.24475Z" stroke="#1B788B" stroke-width="2" stroke-linecap="round"/>
<path d="M1 17.1817C1 16.4943 1.5573 15.937 2.24475 15.937H7.22373C7.91118 15.937 8.46848 16.4943 8.46848 17.1817V19.6712C8.46848 20.3587 7.91118 20.916 7.22373 20.916H2.24475C1.5573 20.916 1 20.3587 1 19.6712V17.1817Z" stroke="#1B788B" stroke-width="2" stroke-linecap="round"/>
<path d="M12.2026 2.24475C12.2026 1.5573 12.7599 1 13.4474 1H19.6711C20.3586 1 20.9159 1.5573 20.9159 2.24475V4.73424C20.9159 5.42169 20.3586 5.97899 19.6711 5.97899H13.4474C12.7599 5.97899 12.2026 5.42169 12.2026 4.73424V2.24475Z" stroke="#1B788B" stroke-width="2" stroke-linecap="round"/>
</svg>
