<svg width="306" height="121" viewBox="0 0 306 121" fill="none" xmlns="http://www.w3.org/2000/svg">
<path d="M4.50861 94.1481L301.487 37.3484" stroke="#1B788B" stroke-width="46"/>
<path d="M23.8353 100.231C21.3427 99.7541 19.6375 99.2189 18.7198 98.6256C17.8064 98.0747 17.2918 97.2262 17.1759 96.08C17.0471 94.8065 17.164 92.9935 17.5265 90.6411C17.8847 88.2463 18.387 85.5796 19.0333 82.641C19.722 79.6981 20.5253 76.6149 21.443 73.3916C22.3607 70.1683 23.3125 67.0701 24.2984 64.0972C25.2843 61.1242 26.2535 58.4103 27.206 55.9553C28.1967 53.4536 29.0925 51.4976 29.8933 50.0872L29.1771 47.4579C29.7714 47.3978 30.6142 47.4627 31.7055 47.6525C32.7968 47.8424 33.8946 48.0959 34.9988 48.4131C36.1454 48.726 37.1456 49.0751 37.9994 49.4605C38.8913 49.7992 39.3947 50.1128 39.5097 50.4013C39.4005 51.4416 39.3873 53.0082 39.4703 55.1011C39.549 57.1516 39.7064 59.3443 39.9425 61.679C40.4104 66.3061 41.0395 70.8311 41.8298 75.254C42.6582 79.6302 43.9623 84.0441 45.7418 88.4956C46.0776 85.0309 46.458 81.5832 46.883 78.1523C47.3462 74.6748 47.8477 71.3649 48.3876 68.2226C48.9233 65.0379 49.4826 62.0866 50.0654 59.3689C50.6483 56.6511 51.2231 54.2772 51.7897 52.2473C52.3945 50.1705 52.9807 48.546 53.5483 47.3736C54.1116 46.1588 54.6649 45.481 55.2082 45.3403C55.6837 45.378 56.2124 45.5175 56.7943 45.7589C57.3719 45.9578 57.9347 46.2225 58.4828 46.553C59.0308 46.8836 59.5407 47.2608 60.0124 47.6849C60.4841 48.1089 60.871 48.5415 61.1729 48.9827C59.8703 49.6719 58.6428 51.104 57.4904 53.279C56.3805 55.4497 55.3581 58.0618 54.4232 61.1153C53.5265 64.1221 52.7192 67.3772 52.0014 70.8805C51.326 74.3795 50.7524 77.8254 50.2807 81.2181C49.8471 84.564 49.5385 87.6614 49.3548 90.5104C49.2136 93.355 49.2077 95.6285 49.3369 97.3308C49.3455 97.4157 49.3732 97.4772 49.4199 97.5154C49.2968 97.5707 49.1504 97.6069 48.9806 97.6241C48.8533 97.637 48.7259 97.6499 48.5986 97.6627C46.6459 97.8602 44.8796 97.7815 43.2999 97.4266C41.7669 97.1099 40.7219 96.5294 40.1648 95.6852C38.9128 92.2095 37.8222 88.8462 36.8931 85.5951C35.964 82.3441 35.1198 79.0845 34.3604 75.8163C33.6436 72.5438 32.9882 69.2437 32.3944 65.9159C31.8388 62.5413 31.3106 59.0139 30.8098 55.3336C30.132 56.6887 29.4525 58.4513 28.7714 60.6215C28.086 62.7493 27.4433 65.0871 26.8432 67.6351C26.2432 70.1831 25.6773 72.8562 25.1454 75.6546C24.656 78.4487 24.2451 81.1705 23.9127 83.82C23.5802 86.4696 23.3622 88.9789 23.2587 91.348C23.1509 93.6747 23.1828 95.687 23.3545 97.385C23.4447 98.2765 23.5091 98.9132 23.5477 99.2953C23.6288 99.673 23.7247 99.985 23.8353 100.231ZM66.9501 93.234C64.5047 93.224 62.4659 92.358 60.8337 90.6362C59.2015 88.9143 58.2395 86.6101 57.9476 83.7234C57.7759 82.0254 57.8525 80.238 58.1773 78.3611C58.5021 76.4843 59.0456 74.6496 59.8078 72.8572C60.5658 71.0223 61.5042 69.2763 62.6232 67.6194C63.7422 65.9624 64.9887 64.5069 66.3629 63.253C68.5216 61.2764 70.6198 60.1851 72.6574 59.9791C74.0888 60.5634 75.5784 61.9351 77.1261 64.0944C77.3384 64.0729 77.5294 64.0536 77.6992 64.0364C77.8647 63.9768 78.0536 63.9363 78.2658 63.9148C80.5157 63.6873 81.8424 65.5687 82.2459 69.559C82.5163 72.2334 82.3281 74.8255 81.6814 77.3353C81.0727 79.7983 80.0818 82.0856 78.7086 84.1972C77.3779 86.3044 75.6987 88.1467 73.6711 89.724C71.6816 91.2546 69.4413 92.4246 66.9501 93.234ZM68.1693 72.8479C67.5464 73.8972 66.9745 75.0272 66.4537 76.2377C65.9328 77.4483 65.499 78.6714 65.1522 79.9073C64.8012 81.1006 64.5541 82.262 64.411 83.3915C64.2636 84.4785 64.2329 85.4465 64.3187 86.2955C64.4217 87.3143 64.6903 88.2735 65.1243 89.1731C65.5583 90.0726 65.994 90.5646 66.4314 90.6491C68.2988 90.0314 69.9598 89.0701 71.4146 87.7651C72.9075 86.4134 74.139 84.8093 75.1092 82.953C76.1218 81.0923 76.8349 79.0261 77.2484 76.7543C77.7044 74.4782 77.8058 72.0879 77.5525 69.5833C77.4409 68.4796 77.2892 67.6158 77.0975 66.992C76.9058 66.3681 76.6377 65.8377 76.2933 65.4008C74.4813 66.1415 72.8947 67.2025 71.5334 68.5838C70.2146 69.9608 69.0932 71.3822 68.1693 72.8479ZM87.9867 64.2184C87.7487 63.9851 87.504 63.4738 87.2527 62.6844C86.997 61.8526 86.8391 61.1395 86.779 60.5452C87.8913 60.5185 88.9612 60.4961 89.9886 60.478C91.0117 60.4174 91.9499 60.3655 92.8032 60.3221C93.3111 58.9842 93.8637 57.6632 94.4609 56.3592C95.0962 55.0084 95.702 53.7893 96.2781 52.7018C96.8925 51.5676 97.4603 50.6096 97.9816 49.8278C98.5454 49.0418 98.9864 48.5255 99.3045 48.2789C99.729 48.236 100.268 48.2672 100.922 48.3726C101.614 48.4313 102.313 48.5536 103.018 48.7396C103.718 48.8832 104.358 49.0545 104.935 49.2533C105.513 49.4522 105.921 49.6683 106.159 49.9016C105.048 51.6434 104.097 53.262 103.305 54.7573C102.55 56.2059 101.733 57.8753 100.852 59.7655C101.701 59.6796 102.548 59.5725 103.393 59.4442C104.28 59.3117 105.165 59.1578 106.048 58.9828C106.281 59.1736 106.479 59.4323 106.641 59.7591C106.798 60.0433 106.894 60.3553 106.928 60.6949C104.926 61.6693 102.443 62.3492 99.4797 62.7346C98.6245 64.8795 97.8754 67.0137 97.2325 69.1372C96.6277 71.2139 96.1225 73.2162 95.7171 75.1441C95.3541 77.0677 95.0865 78.8745 94.9144 80.5644C94.7846 82.25 94.7863 83.7507 94.9193 85.0667C95.1082 86.9345 95.9138 87.9037 97.3361 87.9743C98.5925 87.6757 99.7701 87.235 100.869 86.6522C101.968 86.0693 102.927 85.372 103.745 84.5602C104.038 84.9165 104.219 85.2199 104.287 85.4703C104.071 85.8781 103.671 86.3689 103.086 86.9427C102.543 87.5122 101.934 88.0669 101.26 88.6068C100.59 89.1892 99.932 89.6845 99.2872 90.0928C98.6423 90.5011 98.1522 90.7436 97.8169 90.8204C96.7513 90.8852 95.6665 90.7591 94.5623 90.4419C93.4581 90.1247 92.4281 89.6928 91.4723 89.1462C90.5589 88.5953 89.7876 87.9657 89.1585 87.2574C88.5251 86.5066 88.1698 85.7492 88.0925 84.9851C87.9895 83.9663 87.988 82.6799 88.0882 81.126C88.2265 79.5252 88.4581 77.7865 88.7829 75.9096C89.1078 74.0327 89.5089 72.0624 89.9864 69.9985C90.4638 67.9347 91.0071 65.8856 91.6162 63.8514L87.9867 64.2184ZM129.212 58.0556C129.308 60.7047 129.071 63.023 128.5 65.0105C127.925 66.9556 126.988 68.7228 125.691 70.312C124.432 71.8545 122.841 73.3019 120.92 74.6541C118.998 76.0063 116.732 77.3504 114.123 78.6863C114.149 78.941 114.155 79.2191 114.143 79.5206C114.169 79.7753 114.197 80.0512 114.227 80.3483C114.282 80.9002 114.383 81.469 114.528 82.0547C114.673 82.6404 114.877 83.1772 115.141 83.6652C115.405 84.1531 115.745 84.5476 116.161 84.8485C116.573 85.1071 117.076 85.2063 117.671 85.1462C118.817 85.0303 119.916 84.6618 120.968 84.0408C122.02 83.4198 122.998 82.6991 123.902 81.8787C124.843 81.0116 125.696 80.1106 126.459 79.1758C127.26 78.1942 127.964 77.3082 128.57 76.5179C129.033 76.857 129.43 77.1813 129.762 77.4909C128.109 80.2311 126.223 82.5661 124.102 84.4959C122.02 86.3789 119.983 87.657 117.993 88.3299C115.029 88.2865 112.63 87.4571 110.794 85.8416C108.996 84.1793 107.969 82.0747 107.711 79.5277C107.535 77.7872 107.59 76.0019 107.877 74.1718C108.202 72.2949 108.705 70.4858 109.387 68.7444C110.106 66.9562 110.964 65.2613 111.96 63.6597C112.999 62.0537 114.12 60.6324 115.324 59.3956C116.571 58.1545 117.863 57.1448 119.199 56.3664C120.578 55.5837 121.968 55.1215 123.369 54.9799C125.347 55.0371 127.295 56.0624 129.212 58.0556ZM125.031 60.6012C123.902 60.8869 122.76 61.474 121.607 62.3626C120.453 63.2512 119.388 64.3881 118.414 65.7732C117.481 67.154 116.655 68.7385 115.935 70.5266C115.215 72.3148 114.7 74.211 114.388 76.2152C117.612 74.1738 120.225 71.8083 122.225 69.1186C124.222 66.3866 125.157 63.5474 125.031 60.6012ZM169.653 60.8492C168.978 60.9603 168.195 61.4898 167.305 62.4375C166.41 63.3428 165.456 64.5113 164.443 65.9432C163.468 67.3283 162.445 68.8684 161.372 70.5636C160.343 72.2544 159.334 73.9431 158.347 75.6297C157.398 77.2695 156.503 78.818 155.664 80.2751C154.825 81.7322 154.107 82.8984 153.51 83.7736C152.537 83.486 151.675 83.0157 150.922 82.3628C150.166 81.6673 149.583 80.7828 149.175 79.7091C149.254 78.3717 149.414 76.9833 149.654 75.5438C149.89 74.0618 150.228 72.5267 150.668 70.9384C151.15 69.3458 151.753 67.6767 152.477 65.931C153.239 64.1385 154.184 62.2419 155.311 60.241C154.679 60.3478 153.856 60.9028 152.842 61.9058C151.824 62.8664 150.749 64.1116 149.618 65.6412C148.481 67.1284 147.322 68.8109 146.14 70.6887C144.953 72.5241 143.849 74.3296 142.828 76.1054C141.48 78.4716 140.36 80.5362 139.466 82.299C138.615 84.0576 137.97 85.1091 137.533 85.4534C136.348 84.7585 135.496 83.9655 134.977 83.0746C134.458 82.1836 134.035 81.1757 133.707 80.051C133.646 79.0279 133.666 77.7394 133.766 76.1855C133.909 74.6272 134.153 73.0158 134.499 71.3511C135.162 68.1536 136.103 64.9493 137.323 61.7383C138.584 58.5231 139.808 55.569 140.994 52.8761C142.208 53.0106 143.31 53.3065 144.3 53.7639C145.332 54.2171 146.432 54.9206 147.601 55.8745C147.309 57.2334 146.793 58.7008 146.052 60.2767C145.306 61.8102 144.527 63.4328 143.714 65.1446C142.9 66.8565 142.176 68.6022 141.541 70.3817C140.907 72.1613 140.55 73.9342 140.471 75.7004C141.488 73.8822 142.691 71.7879 144.081 69.4173C145.514 67.0425 146.98 64.7929 148.481 62.6685C150.024 60.5398 151.576 58.7104 153.136 57.1803C154.697 55.6502 156.156 54.8164 157.515 54.6791C158.024 54.6276 158.585 54.6567 159.196 54.7664C159.808 54.8761 160.381 55.0325 160.916 55.2357C161.451 55.4389 161.901 55.6507 162.267 55.871C162.628 56.049 162.836 56.1994 162.891 56.3225C162.765 57.193 162.374 58.4119 161.717 59.9792C161.099 61.4997 160.426 63.1116 159.698 64.8149C158.969 66.5181 158.3 68.1725 157.691 69.778C157.077 71.341 156.751 72.5747 156.714 73.479C158.507 70.4245 160.2 67.6588 161.793 65.1819C163.382 62.6626 164.9 60.4936 166.346 58.6749C167.791 56.8562 169.148 55.4325 170.417 54.4037C171.727 53.3706 172.998 52.7918 174.229 52.6673C175.078 52.5815 175.887 52.7355 176.656 53.1295C177.463 53.4767 178.058 54.0598 178.441 54.8788C178.188 56.1909 177.706 57.7835 176.994 59.6566C176.326 61.5253 175.646 63.5024 174.957 65.5877C174.263 67.6305 173.651 69.6436 173.123 71.6268C172.637 73.6057 172.471 75.3593 172.626 76.8875C172.716 77.779 172.903 78.3604 173.188 78.6318C173.469 78.8607 173.842 78.9516 174.309 78.9044C174.819 78.8529 175.277 78.7207 175.684 78.508C176.13 78.2486 176.459 78.1081 176.671 78.0866C176.943 78.2307 177.113 78.4279 177.181 78.6783C177.249 78.9287 177.294 79.16 177.315 79.3723C176.535 80.1373 175.721 80.7772 174.872 81.2918C174.028 81.8489 173.054 82.1833 171.95 82.2949C170.932 82.3979 170.065 82.314 169.352 82.043C168.681 81.7678 168.103 81.3545 167.618 80.8032C167.134 80.2518 166.768 79.6026 166.521 78.8557C166.274 78.1088 166.105 77.2896 166.015 76.3981C165.869 74.9548 165.916 73.5134 166.157 72.0739C166.393 70.592 166.701 69.1885 167.082 67.8635C167.501 66.4917 167.951 65.2239 168.434 64.0601C168.912 62.8539 169.319 61.7836 169.653 60.8492ZM202.881 51.2495C203.306 51.2066 203.803 51.2421 204.372 51.3561C204.979 51.4234 205.529 51.5608 206.022 51.7683C206.51 51.9333 206.916 52.1281 207.239 52.3528C207.604 52.5731 207.797 52.7895 207.819 53.0017C207.15 54.8705 206.547 56.754 206.01 58.6523C205.469 60.5082 205.027 62.2897 204.685 63.9968C204.343 65.7038 204.096 67.294 203.945 68.7674C203.836 70.2365 203.836 71.5016 203.943 72.5629C204.063 73.7515 204.291 74.7362 204.628 75.517C204.96 76.2553 205.44 76.7643 206.069 77.0438C205.594 77.4349 204.963 77.7773 204.178 78.0711C203.393 78.3649 202.682 78.544 202.046 78.6084C199.753 78.8402 198.448 77.3855 198.131 74.2442C197.886 71.8245 198.358 68.4318 199.546 64.0661C198.894 66.1047 198.105 68.05 197.177 69.9021C196.245 71.7117 195.272 73.3324 194.259 74.7643C193.246 76.1961 192.188 77.3966 191.086 78.3658C190.021 79.2883 189.009 79.8838 188.05 80.1523C186.471 80.2262 185.122 79.6121 184.004 78.31C182.882 76.9654 182.209 75.1894 181.986 72.982C181.745 70.6048 182.002 68.0487 182.754 65.3138C183.507 62.5789 184.555 60.0071 185.898 57.5984C187.284 55.1854 188.835 53.1416 190.553 51.467C192.266 49.7499 193.989 48.7609 195.72 48.5C196.158 48.5844 196.651 48.7919 197.199 49.1225C197.789 49.4487 198.344 49.8429 198.862 50.3051C199.423 50.763 199.901 51.2507 200.296 51.7682C200.688 52.2433 200.924 52.6697 201.005 53.0475C199.333 53.4739 197.655 54.4798 195.971 56.0652C194.33 57.6464 192.867 59.5096 191.583 61.655C190.337 63.7537 189.361 65.9751 188.655 68.3194C187.948 70.6637 187.694 72.8122 187.891 74.765C187.973 75.5715 188.321 76.0509 188.937 76.203C190.142 75.8238 191.459 74.64 192.888 72.6515C194.312 70.6206 195.975 67.5578 197.877 63.463C198.224 62.656 198.605 61.7597 199.02 60.7743C199.477 59.7846 199.931 58.7525 200.379 57.6779C200.828 56.6033 201.256 55.5308 201.662 54.4605C202.107 53.3434 202.513 52.2731 202.881 51.2495ZM211.768 75.0523C211.855 73.7998 212.053 72.1502 212.361 70.1035C212.707 68.0101 213.127 65.802 213.621 63.4791C214.111 61.1139 214.643 58.7443 215.218 56.3704C215.792 53.9966 216.37 51.8583 216.949 49.9557C217.368 48.5839 217.753 47.5158 218.105 46.7512C218.452 45.9441 218.854 45.2602 219.312 44.6993C219.915 44.7241 220.546 44.8104 221.204 44.9583C221.862 45.1061 222.503 45.2986 223.128 45.5356C223.752 45.7727 224.315 46.0374 224.816 46.3298C225.313 46.5797 225.704 46.8404 225.989 47.1118C224.98 48.5861 224.118 50.2386 223.402 52.0692C222.729 53.8955 222.085 56.2121 221.468 59.0191C223.554 56.7497 225.373 54.593 226.925 52.5492C228.519 50.5012 229.964 48.2537 231.26 45.8068C231.494 45.5688 231.929 45.4176 232.565 45.3533C233.16 45.2932 233.743 45.3413 234.317 45.4978C234.886 45.6118 235.294 45.8279 235.54 46.146C234.982 48.2609 234.804 50.3159 235.006 52.311C235.195 54.1788 235.612 55.5518 236.258 56.4299C236.242 56.6889 235.994 57.2071 235.515 57.9846C235.079 58.7577 234.574 59.4949 234.002 60.196C232.796 59.7176 231.695 59.0141 230.701 58.0854C229.702 57.1143 228.928 56.0347 228.379 54.8466C226.526 56.4492 224.967 58.0005 223.704 59.5006C222.436 60.9582 221.376 62.5663 220.525 64.3248C219.712 66.0367 219.051 67.9903 218.544 70.1858C218.08 72.377 217.677 74.9693 217.337 77.9628C216.95 77.959 216.468 77.8576 215.891 77.6587C215.36 77.498 214.801 77.2757 214.215 76.9919C213.671 76.7038 213.168 76.3902 212.705 76.0511C212.242 75.7119 211.929 75.379 211.768 75.0523ZM238.628 67.576C238.474 66.0478 238.641 63.8867 239.131 61.0926C239.662 58.2942 240.402 55.2176 241.349 51.8626C242.297 48.5076 243.403 45.0293 244.668 41.4277C245.934 37.8261 247.223 34.458 248.535 31.3234C249.89 28.1845 251.201 25.4574 252.468 23.1422C253.778 20.8227 254.924 19.2273 255.908 18.3559C256.507 18.3382 257.169 18.5285 257.896 18.9268C258.665 19.3208 259.38 19.8273 260.043 20.4464C260.702 21.0231 261.259 21.6529 261.714 22.3359C262.212 23.0147 262.49 23.6512 262.55 24.2455C260.795 25.9669 259.042 28.1383 257.291 30.7597C255.579 33.3343 253.977 36.1551 252.486 39.222C250.991 42.2465 249.642 45.4491 248.44 48.8298C247.276 52.1638 246.342 55.4317 245.636 58.6336C246.759 56.1615 247.966 53.8952 249.259 51.8347C250.551 49.7742 251.872 47.9896 253.22 46.481C254.568 44.9723 255.907 43.7864 257.234 42.9231C258.601 42.013 259.918 41.4724 261.187 41.3012C263.193 42.4707 264.309 44.1804 264.536 46.4303C264.674 47.7887 264.537 49.1962 264.127 50.6529C263.713 52.0671 263.099 53.4157 262.285 54.6987C261.509 55.935 260.57 57.0378 259.467 58.007C258.403 58.9294 257.247 59.5824 255.999 59.9659C256.574 61.4087 257.257 62.862 258.048 64.3258C258.882 65.7854 259.817 67.1917 260.855 68.5449C261.934 69.8937 263.11 71.1258 264.38 72.2409C265.693 73.3518 267.136 74.2566 268.707 74.9554C268.538 75.4013 268.263 75.858 267.881 76.3254C267.499 76.7929 267.026 77.2052 266.462 77.5625C265.902 77.9622 265.27 78.2834 264.566 78.5262C263.908 78.8071 263.239 78.9819 262.56 79.0506C261.414 79.1665 260.274 78.7029 259.139 77.6597C258.047 76.6123 256.988 75.0469 255.962 72.9635C255.15 71.2874 254.324 69.2696 253.485 66.91C252.646 64.5505 251.86 62.0783 251.127 59.4936C251.682 59.0515 252.369 58.4245 253.188 57.6127C254.002 56.7585 254.848 55.7938 255.726 54.7187C259.096 50.7327 260.649 47.4238 260.382 44.7918C260.348 44.4522 260.097 44.3061 259.631 44.3533C258.786 44.4816 257.829 44.9857 256.76 45.8657C255.691 46.7457 254.567 47.9315 253.389 49.4229C252.253 50.9101 251.098 52.6351 249.924 54.5978C248.793 56.5562 247.719 58.6589 246.702 60.9059C246.279 61.8064 245.91 62.83 245.598 63.9766C245.285 65.1233 245.018 66.308 244.799 67.531C244.618 68.7072 244.5 69.877 244.446 71.0403C244.392 72.2036 244.415 73.2734 244.514 74.2498C244.574 74.8441 244.687 75.3258 244.853 75.695C243.524 75.7007 242.683 75.4427 242.33 74.9209C241.939 74.4458 241.599 74.0514 241.31 73.7375C241.067 73.4618 240.808 73.2307 240.532 73.0442C240.12 72.7857 239.737 72.1812 239.384 71.2306C239.03 70.28 238.779 69.0618 238.628 67.576ZM291.344 42.6903C291.383 43.5011 291.321 44.3651 291.156 45.2824C291.03 46.1528 290.833 46.966 290.566 47.722C290.295 48.4356 289.993 49.0451 289.658 49.5507C289.323 50.0563 288.986 50.3263 288.646 50.3606C288.175 50.3654 287.867 50.0749 287.722 49.4892C287.709 49.3618 287.732 49.1665 287.791 48.9032C287.888 48.5932 287.984 48.262 288.077 47.9095C288.17 47.557 288.241 47.2067 288.292 46.8585C288.385 46.506 288.419 46.2024 288.393 45.9477C288.333 45.3534 288.135 44.8803 287.799 44.5282C287.501 44.1295 287.119 43.9537 286.652 44.001C284.954 44.1727 283.767 45.3648 283.09 47.5775C282.413 49.7901 282.283 52.9553 282.699 57.073C282.742 57.4975 282.789 57.75 282.84 57.8306C283.727 57.698 284.511 57.5974 285.19 57.5287C285.907 57.4133 286.605 57.3212 287.285 57.2526C287.336 57.3332 287.374 57.5008 287.4 57.7555C287.438 58.1376 287.381 58.4221 287.229 58.6091C286.274 58.92 285.508 59.1905 284.931 59.4204C284.392 59.6035 283.98 59.7738 283.696 59.9312C283.412 60.0886 283.236 60.2565 283.168 60.4349C283.138 60.5665 283.136 60.7597 283.162 61.0144C283.196 61.354 283.231 61.6936 283.265 62.0332C283.342 62.3685 283.406 62.7909 283.458 63.3003C283.818 66.8661 283.132 69.8302 281.398 72.1926C279.706 74.5507 277.159 76.0734 273.755 76.7607C273.156 76.7784 272.523 76.6708 271.856 76.4381C271.19 76.2053 270.535 75.8855 269.894 75.4786C269.295 75.0675 268.753 74.5862 268.268 74.0348C267.788 73.5259 267.433 72.9829 267.203 72.4057C267.04 70.7926 267.225 69.2301 267.758 67.7181C268.287 66.1637 269.069 64.7766 270.104 63.557C271.176 62.2907 272.464 61.2385 273.966 60.4005C275.506 59.5157 277.203 58.9152 279.058 58.599C278.951 57.5378 278.74 56.5085 278.424 55.5111C278.109 54.5138 277.777 53.561 277.428 52.6529C277.117 51.698 276.81 50.7855 276.508 49.9155C276.201 49.0031 276.003 48.1012 275.913 47.2097C275.797 46.0635 275.916 44.915 276.272 43.7641C276.623 42.5707 277.133 41.4684 277.803 40.4573C278.468 39.4037 279.276 38.4857 280.226 37.7035C281.176 36.9213 282.19 36.347 283.268 35.9807C283.748 36.0608 284.402 36.3807 285.231 36.9401C286.097 37.4529 286.951 38.0527 287.793 38.7395C288.634 39.4264 289.393 40.143 290.068 40.8895C290.74 41.5935 291.165 42.1937 291.344 42.6903ZM273.267 73.851C274.243 73.3235 275.136 72.6114 275.946 71.7147C276.798 70.8137 277.513 69.8194 278.089 68.732C278.665 67.6445 279.086 66.5083 279.352 65.3235C279.661 64.1345 279.759 62.9881 279.648 61.8844C278.812 62.0976 277.919 62.5953 276.968 63.3775C276.014 64.1173 275.138 64.9992 274.341 66.0232C273.54 67.0048 272.892 68.0139 272.396 69.0503C271.9 70.0868 271.689 70.9658 271.762 71.6875C271.856 72.6214 272.358 73.3425 273.267 73.851Z" fill="#D8F7DD"/>
</svg>
