<svg width="28" height="32" viewBox="0 0 28 32" fill="none" xmlns="http://www.w3.org/2000/svg">
<path d="M10.75 16L17.25 22.6667M17.25 16L10.75 22.6667M23.75 6L22.4485 26.0215C22.3346 27.775 22.2776 28.6518 21.9084 29.3167C21.5832 29.902 21.0928 30.3725 20.5018 30.6663C19.8305 31 18.9736 31 17.2601 31H10.7399C9.02631 31 8.16953 31 7.4982 30.6663C6.90715 30.3725 6.41676 29.902 6.09164 29.3167C5.72236 28.6518 5.66537 27.775 5.5514 26.0215L4.25 6M1 6H27M20.5 6L20.0603 4.64678C19.634 3.33542 19.4208 2.67973 19.0256 2.19497C18.6766 1.76688 18.2284 1.43553 17.7221 1.2313C17.1486 1 16.4749 1 15.1271 1H12.8729C11.5251 1 10.8514 1 10.278 1.2313C9.77162 1.43553 9.32338 1.76688 8.97435 2.19497C8.57908 2.67973 8.366 3.33542 7.93979 4.64678L7.5 6" stroke="#FF5555" stroke-width="2" stroke-linecap="round" stroke-linejoin="round"/>
</svg>
